<svg width="160" height="160" viewBox="0 0 160 160" fill="none" xmlns="http://www.w3.org/2000/svg">
<path d="M74 59.5C74 67.5081 67.5081 74 59.5 74C51.4919 74 45 67.5081 45 59.5C45 51.4919 51.4919 45 59.5 45C67.5081 45 74 51.4919 74 59.5Z" fill="url(#paint0_linear_19_349)"/>
<path d="M74 100.5C74 108.508 67.5081 115 59.5 115C51.4919 115 45 108.508 45 100.5C45 92.4919 51.4919 86 59.5 86C67.5081 86 74 92.4919 74 100.5Z" fill="url(#paint1_linear_19_349)"/>
<path d="M115 59.5C115 67.5081 108.508 74 100.5 74C92.4919 74 86 67.5081 86 59.5C86 51.4919 92.4919 45 100.5 45C108.508 45 115 51.4919 115 59.5Z" fill="url(#paint2_linear_19_349)"/>
<path d="M115 100.5C115 108.508 108.508 115 100.5 115C92.4919 115 86 108.508 86 100.5C86 92.4919 92.4919 86 100.5 86C108.508 86 115 92.4919 115 100.5Z" fill="url(#paint3_linear_19_349)"/>
<path d="M143 24.5C143 28.6421 139.642 32 135.5 32C131.358 32 128 28.6421 128 24.5C128 20.3579 131.358 17 135.5 17C139.642 17 143 20.3579 143 24.5Z" fill="url(#paint4_linear_19_349)"/>
<path d="M143 61.5C143 65.6421 139.642 69 135.5 69C131.358 69 128 65.6421 128 61.5C128 57.3579 131.358 54 135.5 54C139.642 54 143 57.3579 143 61.5Z" fill="url(#paint5_linear_19_349)"/>
<path d="M143 98.5C143 102.642 139.642 106 135.5 106C131.358 106 128 102.642 128 98.5C128 94.3579 131.358 91 135.5 91C139.642 91 143 94.3579 143 98.5Z" fill="url(#paint6_linear_19_349)"/>
<path d="M106 24.5C106 28.6421 102.642 32 98.5 32C94.3579 32 91 28.6421 91 24.5C91 20.3579 94.3579 17 98.5 17C102.642 17 106 20.3579 106 24.5Z" fill="url(#paint7_linear_19_349)"/>
<path d="M69 24.5C69 28.6421 65.6421 32 61.5 32C57.3579 32 54 28.6421 54 24.5C54 20.3579 57.3579 17 61.5 17C65.6421 17 69 20.3579 69 24.5Z" fill="url(#paint8_linear_19_349)"/>
<path d="M32 24.5C32 28.6421 28.6421 32 24.5 32C20.3579 32 17 28.6421 17 24.5C17 20.3579 20.3579 17 24.5 17C28.6421 17 32 20.3579 32 24.5Z" fill="url(#paint9_linear_19_349)"/>
<path d="M143 135.5C143 139.642 139.642 143 135.5 143C131.358 143 128 139.642 128 135.5C128 131.358 131.358 128 135.5 128C139.642 128 143 131.358 143 135.5Z" fill="url(#paint10_linear_19_349)"/>
<path d="M106 135.5C106 139.642 102.642 143 98.5 143C94.3579 143 91 139.642 91 135.5C91 131.358 94.3579 128 98.5 128C102.642 128 106 131.358 106 135.5Z" fill="url(#paint11_linear_19_349)"/>
<path d="M69 135.5C69 139.642 65.6421 143 61.5 143C57.3579 143 54 139.642 54 135.5C54 131.358 57.3579 128 61.5 128C65.6421 128 69 131.358 69 135.5Z" fill="url(#paint12_linear_19_349)"/>
<path d="M32 135.5C32 139.642 28.6421 143 24.5 143C20.3579 143 17 139.642 17 135.5C17 131.358 20.3579 128 24.5 128C28.6421 128 32 131.358 32 135.5Z" fill="url(#paint13_linear_19_349)"/>
<path d="M32 61.5C32 65.6421 28.6421 69 24.5 69C20.3579 69 17 65.6421 17 61.5C17 57.3579 20.3579 54 24.5 54C28.6421 54 32 57.3579 32 61.5Z" fill="url(#paint14_linear_19_349)"/>
<path d="M32 98.5C32 102.642 28.6421 106 24.5 106C20.3579 106 17 102.642 17 98.5C17 94.3579 20.3579 91 24.5 91C28.6421 91 32 94.3579 32 98.5Z" fill="url(#paint15_linear_19_349)"/>
<path d="M65 3.5C65 5.433 63.433 7 61.5 7C59.567 7 58 5.433 58 3.5C58 1.567 59.567 0 61.5 0C63.433 0 65 1.567 65 3.5Z" fill="url(#paint16_linear_19_349)"/>
<path d="M102 3.5C102 5.433 100.433 7 98.5 7C96.567 7 95 5.433 95 3.5C95 1.567 96.567 0 98.5 0C100.433 0 102 1.567 102 3.5Z" fill="url(#paint17_linear_19_349)"/>
<path d="M65 156.5C65 158.433 63.433 160 61.5 160C59.567 160 58 158.433 58 156.5C58 154.567 59.567 153 61.5 153C63.433 153 65 154.567 65 156.5Z" fill="url(#paint18_linear_19_349)"/>
<path d="M102 156.5C102 158.433 100.433 160 98.5 160C96.567 160 95 158.433 95 156.5C95 154.567 96.567 153 98.5 153C100.433 153 102 154.567 102 156.5Z" fill="url(#paint19_linear_19_349)"/>
<path d="M156.5 65C154.567 65 153 63.433 153 61.5C153 59.567 154.567 58 156.5 58C158.433 58 160 59.567 160 61.5C160 63.433 158.433 65 156.5 65Z" fill="url(#paint20_linear_19_349)"/>
<path d="M156.5 102C154.567 102 153 100.433 153 98.5C153 96.567 154.567 95 156.5 95C158.433 95 160 96.567 160 98.5C160 100.433 158.433 102 156.5 102Z" fill="url(#paint21_linear_19_349)"/>
<path d="M3.5 65C1.567 65 0 63.433 0 61.5C0 59.567 1.567 58 3.5 58C5.433 58 7 59.567 7 61.5C7 63.433 5.433 65 3.5 65Z" fill="url(#paint22_linear_19_349)"/>
<path d="M3.5 102C1.567 102 0 100.433 0 98.5C0 96.567 1.567 95 3.5 95C5.433 95 7 96.567 7 98.5C7 100.433 5.433 102 3.5 102Z" fill="url(#paint23_linear_19_349)"/>
<defs>
<linearGradient id="paint0_linear_19_349" x1="160" y1="80" x2="0" y2="80" gradientUnits="userSpaceOnUse">
<stop stop-color="#00ACF0"/>
<stop offset="1" stop-color="#1D2E8A"/>
</linearGradient>
<linearGradient id="paint1_linear_19_349" x1="160" y1="80" x2="0" y2="80" gradientUnits="userSpaceOnUse">
<stop stop-color="#00ACF0"/>
<stop offset="1" stop-color="#1D2E8A"/>
</linearGradient>
<linearGradient id="paint2_linear_19_349" x1="160" y1="80" x2="0" y2="80" gradientUnits="userSpaceOnUse">
<stop stop-color="#00ACF0"/>
<stop offset="1" stop-color="#1D2E8A"/>
</linearGradient>
<linearGradient id="paint3_linear_19_349" x1="160" y1="80" x2="0" y2="80" gradientUnits="userSpaceOnUse">
<stop stop-color="#00ACF0"/>
<stop offset="1" stop-color="#1D2E8A"/>
</linearGradient>
<linearGradient id="paint4_linear_19_349" x1="160" y1="80" x2="0" y2="80" gradientUnits="userSpaceOnUse">
<stop stop-color="#00ACF0"/>
<stop offset="1" stop-color="#1D2E8A"/>
</linearGradient>
<linearGradient id="paint5_linear_19_349" x1="160" y1="80" x2="0" y2="80" gradientUnits="userSpaceOnUse">
<stop stop-color="#00ACF0"/>
<stop offset="1" stop-color="#1D2E8A"/>
</linearGradient>
<linearGradient id="paint6_linear_19_349" x1="160" y1="80" x2="0" y2="80" gradientUnits="userSpaceOnUse">
<stop stop-color="#00ACF0"/>
<stop offset="1" stop-color="#1D2E8A"/>
</linearGradient>
<linearGradient id="paint7_linear_19_349" x1="160" y1="80" x2="0" y2="80" gradientUnits="userSpaceOnUse">
<stop stop-color="#00ACF0"/>
<stop offset="1" stop-color="#1D2E8A"/>
</linearGradient>
<linearGradient id="paint8_linear_19_349" x1="160" y1="80" x2="0" y2="80" gradientUnits="userSpaceOnUse">
<stop stop-color="#00ACF0"/>
<stop offset="1" stop-color="#1D2E8A"/>
</linearGradient>
<linearGradient id="paint9_linear_19_349" x1="160" y1="80" x2="0" y2="80" gradientUnits="userSpaceOnUse">
<stop stop-color="#00ACF0"/>
<stop offset="1" stop-color="#1D2E8A"/>
</linearGradient>
<linearGradient id="paint10_linear_19_349" x1="160" y1="80" x2="0" y2="80" gradientUnits="userSpaceOnUse">
<stop stop-color="#00ACF0"/>
<stop offset="1" stop-color="#1D2E8A"/>
</linearGradient>
<linearGradient id="paint11_linear_19_349" x1="160" y1="80" x2="0" y2="80" gradientUnits="userSpaceOnUse">
<stop stop-color="#00ACF0"/>
<stop offset="1" stop-color="#1D2E8A"/>
</linearGradient>
<linearGradient id="paint12_linear_19_349" x1="160" y1="80" x2="0" y2="80" gradientUnits="userSpaceOnUse">
<stop stop-color="#00ACF0"/>
<stop offset="1" stop-color="#1D2E8A"/>
</linearGradient>
<linearGradient id="paint13_linear_19_349" x1="160" y1="80" x2="0" y2="80" gradientUnits="userSpaceOnUse">
<stop stop-color="#00ACF0"/>
<stop offset="1" stop-color="#1D2E8A"/>
</linearGradient>
<linearGradient id="paint14_linear_19_349" x1="160" y1="80" x2="0" y2="80" gradientUnits="userSpaceOnUse">
<stop stop-color="#00ACF0"/>
<stop offset="1" stop-color="#1D2E8A"/>
</linearGradient>
<linearGradient id="paint15_linear_19_349" x1="160" y1="80" x2="0" y2="80" gradientUnits="userSpaceOnUse">
<stop stop-color="#00ACF0"/>
<stop offset="1" stop-color="#1D2E8A"/>
</linearGradient>
<linearGradient id="paint16_linear_19_349" x1="160" y1="80" x2="0" y2="80" gradientUnits="userSpaceOnUse">
<stop stop-color="#00ACF0"/>
<stop offset="1" stop-color="#1D2E8A"/>
</linearGradient>
<linearGradient id="paint17_linear_19_349" x1="160" y1="80" x2="0" y2="80" gradientUnits="userSpaceOnUse">
<stop stop-color="#00ACF0"/>
<stop offset="1" stop-color="#1D2E8A"/>
</linearGradient>
<linearGradient id="paint18_linear_19_349" x1="160" y1="80" x2="0" y2="80" gradientUnits="userSpaceOnUse">
<stop stop-color="#00ACF0"/>
<stop offset="1" stop-color="#1D2E8A"/>
</linearGradient>
<linearGradient id="paint19_linear_19_349" x1="160" y1="80" x2="0" y2="80" gradientUnits="userSpaceOnUse">
<stop stop-color="#00ACF0"/>
<stop offset="1" stop-color="#1D2E8A"/>
</linearGradient>
<linearGradient id="paint20_linear_19_349" x1="160" y1="80" x2="0" y2="80" gradientUnits="userSpaceOnUse">
<stop stop-color="#00ACF0"/>
<stop offset="1" stop-color="#1D2E8A"/>
</linearGradient>
<linearGradient id="paint21_linear_19_349" x1="160" y1="80" x2="0" y2="80" gradientUnits="userSpaceOnUse">
<stop stop-color="#00ACF0"/>
<stop offset="1" stop-color="#1D2E8A"/>
</linearGradient>
<linearGradient id="paint22_linear_19_349" x1="160" y1="80" x2="0" y2="80" gradientUnits="userSpaceOnUse">
<stop stop-color="#00ACF0"/>
<stop offset="1" stop-color="#1D2E8A"/>
</linearGradient>
<linearGradient id="paint23_linear_19_349" x1="160" y1="80" x2="0" y2="80" gradientUnits="userSpaceOnUse">
<stop stop-color="#00ACF0"/>
<stop offset="1" stop-color="#1D2E8A"/>
</linearGradient>
</defs>
</svg>
