<svg width="915" height="160" viewBox="0 0 915 160" fill="none" xmlns="http://www.w3.org/2000/svg">
<path d="M74 59.5C74 67.5081 67.5081 74 59.5 74C51.4919 74 45 67.5081 45 59.5C45 51.4919 51.4919 45 59.5 45C67.5081 45 74 51.4919 74 59.5Z" fill="url(#paint0_linear_19_348)"/>
<path d="M74 100.5C74 108.508 67.5081 115 59.5 115C51.4919 115 45 108.508 45 100.5C45 92.4919 51.4919 86 59.5 86C67.5081 86 74 92.4919 74 100.5Z" fill="url(#paint1_linear_19_348)"/>
<path d="M115 59.5C115 67.5081 108.508 74 100.5 74C92.4919 74 86 67.5081 86 59.5C86 51.4919 92.4919 45 100.5 45C108.508 45 115 51.4919 115 59.5Z" fill="url(#paint2_linear_19_348)"/>
<path d="M115 100.5C115 108.508 108.508 115 100.5 115C92.4919 115 86 108.508 86 100.5C86 92.4919 92.4919 86 100.5 86C108.508 86 115 92.4919 115 100.5Z" fill="url(#paint3_linear_19_348)"/>
<path d="M143 24.5C143 28.6421 139.642 32 135.5 32C131.358 32 128 28.6421 128 24.5C128 20.3579 131.358 17 135.5 17C139.642 17 143 20.3579 143 24.5Z" fill="url(#paint4_linear_19_348)"/>
<path d="M143 61.5C143 65.6421 139.642 69 135.5 69C131.358 69 128 65.6421 128 61.5C128 57.3579 131.358 54 135.5 54C139.642 54 143 57.3579 143 61.5Z" fill="url(#paint5_linear_19_348)"/>
<path d="M143 98.5C143 102.642 139.642 106 135.5 106C131.358 106 128 102.642 128 98.5C128 94.3579 131.358 91 135.5 91C139.642 91 143 94.3579 143 98.5Z" fill="url(#paint6_linear_19_348)"/>
<path d="M106 24.5C106 28.6421 102.642 32 98.5 32C94.3579 32 91 28.6421 91 24.5C91 20.3579 94.3579 17 98.5 17C102.642 17 106 20.3579 106 24.5Z" fill="url(#paint7_linear_19_348)"/>
<path d="M69 24.5C69 28.6421 65.6421 32 61.5 32C57.3579 32 54 28.6421 54 24.5C54 20.3579 57.3579 17 61.5 17C65.6421 17 69 20.3579 69 24.5Z" fill="url(#paint8_linear_19_348)"/>
<path d="M32 24.5C32 28.6421 28.6421 32 24.5 32C20.3579 32 17 28.6421 17 24.5C17 20.3579 20.3579 17 24.5 17C28.6421 17 32 20.3579 32 24.5Z" fill="url(#paint9_linear_19_348)"/>
<path d="M143 135.5C143 139.642 139.642 143 135.5 143C131.358 143 128 139.642 128 135.5C128 131.358 131.358 128 135.5 128C139.642 128 143 131.358 143 135.5Z" fill="url(#paint10_linear_19_348)"/>
<path d="M106 135.5C106 139.642 102.642 143 98.5 143C94.3579 143 91 139.642 91 135.5C91 131.358 94.3579 128 98.5 128C102.642 128 106 131.358 106 135.5Z" fill="url(#paint11_linear_19_348)"/>
<path d="M69 135.5C69 139.642 65.6421 143 61.5 143C57.3579 143 54 139.642 54 135.5C54 131.358 57.3579 128 61.5 128C65.6421 128 69 131.358 69 135.5Z" fill="url(#paint12_linear_19_348)"/>
<path d="M32 135.5C32 139.642 28.6421 143 24.5 143C20.3579 143 17 139.642 17 135.5C17 131.358 20.3579 128 24.5 128C28.6421 128 32 131.358 32 135.5Z" fill="url(#paint13_linear_19_348)"/>
<path d="M32 61.5C32 65.6421 28.6421 69 24.5 69C20.3579 69 17 65.6421 17 61.5C17 57.3579 20.3579 54 24.5 54C28.6421 54 32 57.3579 32 61.5Z" fill="url(#paint14_linear_19_348)"/>
<path d="M32 98.5C32 102.642 28.6421 106 24.5 106C20.3579 106 17 102.642 17 98.5C17 94.3579 20.3579 91 24.5 91C28.6421 91 32 94.3579 32 98.5Z" fill="url(#paint15_linear_19_348)"/>
<path d="M65 3.5C65 5.433 63.433 7 61.5 7C59.567 7 58 5.433 58 3.5C58 1.567 59.567 0 61.5 0C63.433 0 65 1.567 65 3.5Z" fill="url(#paint16_linear_19_348)"/>
<path d="M102 3.5C102 5.433 100.433 7 98.5 7C96.567 7 95 5.433 95 3.5C95 1.567 96.567 0 98.5 0C100.433 0 102 1.567 102 3.5Z" fill="url(#paint17_linear_19_348)"/>
<path d="M65 156.5C65 158.433 63.433 160 61.5 160C59.567 160 58 158.433 58 156.5C58 154.567 59.567 153 61.5 153C63.433 153 65 154.567 65 156.5Z" fill="url(#paint18_linear_19_348)"/>
<path d="M102 156.5C102 158.433 100.433 160 98.5 160C96.567 160 95 158.433 95 156.5C95 154.567 96.567 153 98.5 153C100.433 153 102 154.567 102 156.5Z" fill="url(#paint19_linear_19_348)"/>
<path d="M156.5 65C154.567 65 153 63.433 153 61.5C153 59.567 154.567 58 156.5 58C158.433 58 160 59.567 160 61.5C160 63.433 158.433 65 156.5 65Z" fill="url(#paint20_linear_19_348)"/>
<path d="M156.5 102C154.567 102 153 100.433 153 98.5C153 96.567 154.567 95 156.5 95C158.433 95 160 96.567 160 98.5C160 100.433 158.433 102 156.5 102Z" fill="url(#paint21_linear_19_348)"/>
<path d="M3.5 65C1.567 65 0 63.433 0 61.5C0 59.567 1.567 58 3.5 58C5.433 58 7 59.567 7 61.5C7 63.433 5.433 65 3.5 65Z" fill="url(#paint22_linear_19_348)"/>
<path d="M3.5 102C1.567 102 0 100.433 0 98.5C0 96.567 1.567 95 3.5 95C5.433 95 7 96.567 7 98.5C7 100.433 5.433 102 3.5 102Z" fill="url(#paint23_linear_19_348)"/>
<path d="M248.014 109V47.58H254.737V103.148H284.99V109H248.014ZM296.872 56.793C295.987 56.793 295.544 56.3503 295.544 55.465V48.991C295.544 48.1057 295.987 47.663 296.872 47.663H301.52C301.963 47.663 302.267 47.8013 302.433 48.078C302.654 48.2993 302.765 48.6037 302.765 48.991V55.465C302.765 56.3503 302.35 56.793 301.52 56.793H296.872ZM295.876 109V64.678H302.433V109H295.876ZM319.236 109V64.678H324.382L325.793 69.575C327.896 68.081 330.358 66.7807 333.18 65.674C336.002 64.512 338.935 63.931 341.978 63.931C345.243 63.931 347.871 64.6227 349.863 66.006C351.855 67.3893 353.321 69.2153 354.262 71.484C355.203 73.7527 355.673 76.215 355.673 78.871V109H349.116V79.618C349.116 77.7367 348.729 76.0767 347.954 74.638C347.235 73.144 346.183 71.982 344.8 71.152C343.472 70.322 341.812 69.907 339.82 69.907C337.994 69.907 336.279 70.1007 334.674 70.488C333.125 70.82 331.631 71.318 330.192 71.982C328.809 72.5907 327.342 73.3377 325.793 74.223V109H319.236ZM372.181 109V45.671H378.738V82.357H385.046L398.575 64.678H405.547L389.943 85.345L406.543 109H399.571L384.797 88.25H378.738V109H372.181ZM418.4 109V47.912H440.478C445.735 47.912 449.664 49.2123 452.264 51.813C454.92 54.4137 456.248 58.3423 456.248 63.599C456.248 66.1443 455.861 68.3577 455.086 70.239C454.312 72.1203 453.26 73.6697 451.932 74.887C450.66 76.049 449.221 76.8513 447.616 77.294C448.723 77.5707 449.885 78.041 451.102 78.705C452.375 79.3137 453.565 80.199 454.671 81.361C455.778 82.523 456.663 83.9893 457.327 85.76C458.047 87.5307 458.406 89.6333 458.406 92.068C458.406 96.384 457.715 99.787 456.331 102.277C454.948 104.712 452.984 106.455 450.438 107.506C447.893 108.502 444.85 109 441.308 109H418.4ZM425.04 103.107H441.142C443.356 103.107 445.265 102.775 446.869 102.111C448.529 101.392 449.802 100.174 450.687 98.459C451.628 96.6883 452.098 94.1983 452.098 90.989C452.098 88.7203 451.6 86.7837 450.604 85.179C449.664 83.5743 448.363 82.357 446.703 81.527C445.043 80.6417 443.19 80.199 441.142 80.199H425.04V103.107ZM425.04 74.97H440.893C443.494 74.97 445.624 74.0293 447.284 72.148C449 70.2667 449.885 67.7213 449.94 64.512C450.051 60.5833 449.193 57.8443 447.367 56.295C445.597 54.6903 443.3 53.888 440.478 53.888H425.04V74.97ZM484.098 109.083C481.553 109.083 479.422 108.64 477.707 107.755C475.992 106.814 474.691 105.32 473.806 103.273C472.921 101.17 472.478 98.3483 472.478 94.807V45.671H479.035V93.977C479.035 96.633 479.284 98.6527 479.782 100.036C480.28 101.364 480.999 102.305 481.94 102.858C482.881 103.356 483.987 103.688 485.26 103.854L489.742 104.352V109.083H484.098ZM518.621 109.498C515.412 109.498 512.59 109.166 510.155 108.502C507.776 107.838 505.784 106.676 504.179 105.016C502.575 103.356 501.385 101.06 500.61 98.127C499.836 95.139 499.448 91.3487 499.448 86.756C499.448 82.108 499.836 78.3177 500.61 75.385C501.385 72.397 502.575 70.1007 504.179 68.496C505.784 66.836 507.776 65.7017 510.155 65.093C512.59 64.429 515.412 64.097 518.621 64.097C521.831 64.097 524.625 64.429 527.004 65.093C529.439 65.757 531.459 66.919 533.063 68.579C534.668 70.1837 535.858 72.48 536.632 75.468C537.462 78.4007 537.877 82.1633 537.877 86.756C537.877 91.404 537.462 95.222 536.632 98.21C535.858 101.143 534.668 103.439 533.063 105.099C531.514 106.704 529.522 107.838 527.087 108.502C524.653 109.166 521.831 109.498 518.621 109.498ZM518.621 104.103C520.669 104.103 522.467 103.909 524.016 103.522C525.621 103.135 526.949 102.36 528 101.198C529.052 100.036 529.854 98.293 530.407 95.969C530.961 93.645 531.237 90.574 531.237 86.756C531.237 82.8827 530.961 79.8117 530.407 77.543C529.854 75.2743 529.052 73.559 528 72.397C526.949 71.235 525.621 70.4603 524.016 70.073C522.467 69.6857 520.669 69.492 518.621 69.492C516.519 69.492 514.693 69.6857 513.143 70.073C511.594 70.4603 510.294 71.235 509.242 72.397C508.191 73.559 507.389 75.2743 506.835 77.543C506.282 79.8117 506.005 82.8827 506.005 86.756C506.005 90.574 506.282 93.645 506.835 95.969C507.389 98.293 508.191 100.036 509.242 101.198C510.294 102.36 511.594 103.135 513.143 103.522C514.693 103.909 516.519 104.103 518.621 104.103ZM569.181 109.498C566.691 109.498 564.367 109.166 562.209 108.502C560.051 107.838 558.169 106.676 556.565 105.016C554.96 103.356 553.715 101.06 552.83 98.127C551.944 95.1943 551.502 91.4593 551.502 86.922C551.502 82.3293 551.917 78.5667 552.747 75.634C553.577 72.646 554.766 70.322 556.316 68.662C557.865 67.002 559.746 65.84 561.96 65.176C564.173 64.512 566.635 64.18 569.347 64.18C571.56 64.18 573.967 64.2907 576.568 64.512C579.168 64.678 581.658 64.9547 584.038 65.342V69.243H571.09C568.268 69.243 565.888 69.7133 563.952 70.654C562.015 71.5947 560.549 73.3653 559.553 75.966C558.557 78.5113 558.059 82.2187 558.059 87.088C558.059 91.7913 558.584 95.388 559.636 97.878C560.687 100.368 562.181 102.083 564.118 103.024C566.054 103.909 568.406 104.352 571.173 104.352H584.702V108.17C583.429 108.391 581.935 108.613 580.22 108.834C578.56 109.055 576.789 109.221 574.908 109.332C573.026 109.443 571.117 109.498 569.181 109.498ZM597.918 109V45.671H604.475V82.357H610.783L624.312 64.678H631.284L615.68 85.345L632.28 109H625.308L610.534 88.25H604.475V109H597.918ZM640.568 109L661.484 47.912H669.95L690.866 109H684.06L677.918 91.57H653.35L647.374 109H640.568ZM655.01 85.594H676.258L665.717 53.722L655.01 85.594ZM719.404 109.498C718.298 109.498 716.942 109.47 715.337 109.415C713.733 109.36 712.045 109.277 710.274 109.166C708.559 109.055 706.982 108.945 705.543 108.834C704.16 108.668 703.081 108.502 702.306 108.336V104.352H720.483C722.309 104.352 723.886 104.214 725.214 103.937C726.542 103.66 727.566 103.052 728.285 102.111C729.06 101.17 729.447 99.7593 729.447 97.878V95.886C729.447 93.9493 728.811 92.4553 727.538 91.404C726.266 90.2973 724.218 89.744 721.396 89.744H715.171C712.571 89.744 710.247 89.412 708.199 88.748C706.207 88.084 704.658 86.9497 703.551 85.345C702.445 83.7403 701.891 81.527 701.891 78.705V76.381C701.891 73.6143 702.417 71.3457 703.468 69.575C704.575 67.8043 706.263 66.4763 708.531 65.591C710.855 64.7057 713.843 64.263 717.495 64.263C719.045 64.263 720.815 64.3183 722.807 64.429C724.855 64.5397 726.847 64.7057 728.783 64.927C730.72 65.093 732.297 65.2867 733.514 65.508V69.492H716.416C713.594 69.492 711.409 69.9623 709.859 70.903C708.365 71.8437 707.618 73.6697 707.618 76.381V78.207C707.618 79.9223 707.978 81.2227 708.697 82.108C709.417 82.938 710.413 83.4913 711.685 83.768C713.013 84.0447 714.535 84.183 716.25 84.183H722.558C726.598 84.183 729.724 85.1237 731.937 87.005C734.151 88.8863 735.257 91.5977 735.257 95.139V98.21C735.257 101.198 734.566 103.522 733.182 105.182C731.854 106.787 730.001 107.921 727.621 108.585C725.297 109.194 722.558 109.498 719.404 109.498ZM765.054 109.498C763.948 109.498 762.592 109.47 760.987 109.415C759.383 109.36 757.695 109.277 755.924 109.166C754.209 109.055 752.632 108.945 751.193 108.834C749.81 108.668 748.731 108.502 747.956 108.336V104.352H766.133C767.959 104.352 769.536 104.214 770.864 103.937C772.192 103.66 773.216 103.052 773.935 102.111C774.71 101.17 775.097 99.7593 775.097 97.878V95.886C775.097 93.9493 774.461 92.4553 773.188 91.404C771.916 90.2973 769.868 89.744 767.046 89.744H760.821C758.221 89.744 755.897 89.412 753.849 88.748C751.857 88.084 750.308 86.9497 749.201 85.345C748.095 83.7403 747.541 81.527 747.541 78.705V76.381C747.541 73.6143 748.067 71.3457 749.118 69.575C750.225 67.8043 751.913 66.4763 754.181 65.591C756.505 64.7057 759.493 64.263 763.145 64.263C764.695 64.263 766.465 64.3183 768.457 64.429C770.505 64.5397 772.497 64.7057 774.433 64.927C776.37 65.093 777.947 65.2867 779.164 65.508V69.492H762.066C759.244 69.492 757.059 69.9623 755.509 70.903C754.015 71.8437 753.268 73.6697 753.268 76.381V78.207C753.268 79.9223 753.628 81.2227 754.347 82.108C755.067 82.938 756.063 83.4913 757.335 83.768C758.663 84.0447 760.185 84.183 761.9 84.183H768.208C772.248 84.183 775.374 85.1237 777.587 87.005C779.801 88.8863 780.907 91.5977 780.907 95.139V98.21C780.907 101.198 780.216 103.522 778.832 105.182C777.504 106.787 775.651 107.921 773.271 108.585C770.947 109.194 768.208 109.498 765.054 109.498ZM812.364 109.498C807.716 109.498 804.037 108.806 801.325 107.423C798.669 106.04 796.76 103.688 795.598 100.368C794.436 97.048 793.855 92.5107 793.855 86.756C793.855 80.8907 794.436 76.3257 795.598 73.061C796.816 69.741 798.78 67.417 801.491 66.089C804.203 64.761 807.855 64.097 812.447 64.097C816.376 64.097 819.558 64.5397 821.992 65.425C824.482 66.3103 826.308 67.832 827.47 69.99C828.688 72.0927 829.296 75.0253 829.296 78.788C829.296 81.3887 828.771 83.4913 827.719 85.096C826.723 86.6453 825.257 87.7797 823.32 88.499C821.439 89.163 819.198 89.495 816.597 89.495H800.412C800.468 93.0917 800.855 95.9967 801.574 98.21C802.294 100.368 803.594 101.945 805.475 102.941C807.412 103.882 810.234 104.352 813.941 104.352H828.217V108.336C825.672 108.668 823.182 108.945 820.747 109.166C818.313 109.387 815.518 109.498 812.364 109.498ZM800.329 85.179H816.099C818.589 85.179 820.415 84.7363 821.577 83.851C822.795 82.9103 823.403 81.2503 823.403 78.871C823.403 76.3257 823.016 74.3613 822.241 72.978C821.522 71.5393 820.36 70.5433 818.755 69.99C817.206 69.3813 815.103 69.077 812.447 69.077C809.349 69.077 806.914 69.5473 805.143 70.488C803.373 71.3733 802.128 72.978 801.408 75.302C800.689 77.626 800.329 80.9183 800.329 85.179ZM859.178 109C856.3 109 853.921 108.53 852.04 107.589C850.158 106.648 848.775 105.127 847.89 103.024C847.004 100.921 846.589 98.127 846.645 94.641L846.894 70.073H839.839V65.84L846.977 64.678L848.056 52.311H853.119V64.678H865.901V70.073H853.119V94.641C853.119 96.5777 853.312 98.127 853.7 99.289C854.142 100.451 854.696 101.336 855.36 101.945C856.079 102.554 856.826 102.996 857.601 103.273C858.375 103.494 859.122 103.633 859.842 103.688L865.237 104.186V109H859.178ZM894.385 109.498C893.278 109.498 891.923 109.47 890.318 109.415C888.713 109.36 887.026 109.277 885.255 109.166C883.54 109.055 881.963 108.945 880.524 108.834C879.141 108.668 878.062 108.502 877.287 108.336V104.352H895.464C897.29 104.352 898.867 104.214 900.195 103.937C901.523 103.66 902.547 103.052 903.266 102.111C904.041 101.17 904.428 99.7593 904.428 97.878V95.886C904.428 93.9493 903.792 92.4553 902.519 91.404C901.246 90.2973 899.199 89.744 896.377 89.744H890.152C887.551 89.744 885.227 89.412 883.18 88.748C881.188 88.084 879.639 86.9497 878.532 85.345C877.425 83.7403 876.872 81.527 876.872 78.705V76.381C876.872 73.6143 877.398 71.3457 878.449 69.575C879.556 67.8043 881.243 66.4763 883.512 65.591C885.836 64.7057 888.824 64.263 892.476 64.263C894.025 64.263 895.796 64.3183 897.788 64.429C899.835 64.5397 901.827 64.7057 903.764 64.927C905.701 65.093 907.278 65.2867 908.495 65.508V69.492H891.397C888.575 69.492 886.389 69.9623 884.84 70.903C883.346 71.8437 882.599 73.6697 882.599 76.381V78.207C882.599 79.9223 882.959 81.2227 883.678 82.108C884.397 82.938 885.393 83.4913 886.666 83.768C887.994 84.0447 889.516 84.183 891.231 84.183H897.539C901.578 84.183 904.705 85.1237 906.918 87.005C909.131 88.8863 910.238 91.5977 910.238 95.139V98.21C910.238 101.198 909.546 103.522 908.163 105.182C906.835 106.787 904.981 107.921 902.602 108.585C900.278 109.194 897.539 109.498 894.385 109.498Z" fill="url(#paint24_linear_19_348)"/>
<defs>
<linearGradient id="paint0_linear_19_348" x1="160" y1="80" x2="0" y2="80" gradientUnits="userSpaceOnUse">
<stop stop-color="#00ACF0"/>
<stop offset="1" stop-color="#1D2E8A"/>
</linearGradient>
<linearGradient id="paint1_linear_19_348" x1="160" y1="80" x2="0" y2="80" gradientUnits="userSpaceOnUse">
<stop stop-color="#00ACF0"/>
<stop offset="1" stop-color="#1D2E8A"/>
</linearGradient>
<linearGradient id="paint2_linear_19_348" x1="160" y1="80" x2="0" y2="80" gradientUnits="userSpaceOnUse">
<stop stop-color="#00ACF0"/>
<stop offset="1" stop-color="#1D2E8A"/>
</linearGradient>
<linearGradient id="paint3_linear_19_348" x1="160" y1="80" x2="0" y2="80" gradientUnits="userSpaceOnUse">
<stop stop-color="#00ACF0"/>
<stop offset="1" stop-color="#1D2E8A"/>
</linearGradient>
<linearGradient id="paint4_linear_19_348" x1="160" y1="80" x2="0" y2="80" gradientUnits="userSpaceOnUse">
<stop stop-color="#00ACF0"/>
<stop offset="1" stop-color="#1D2E8A"/>
</linearGradient>
<linearGradient id="paint5_linear_19_348" x1="160" y1="80" x2="0" y2="80" gradientUnits="userSpaceOnUse">
<stop stop-color="#00ACF0"/>
<stop offset="1" stop-color="#1D2E8A"/>
</linearGradient>
<linearGradient id="paint6_linear_19_348" x1="160" y1="80" x2="0" y2="80" gradientUnits="userSpaceOnUse">
<stop stop-color="#00ACF0"/>
<stop offset="1" stop-color="#1D2E8A"/>
</linearGradient>
<linearGradient id="paint7_linear_19_348" x1="160" y1="80" x2="0" y2="80" gradientUnits="userSpaceOnUse">
<stop stop-color="#00ACF0"/>
<stop offset="1" stop-color="#1D2E8A"/>
</linearGradient>
<linearGradient id="paint8_linear_19_348" x1="160" y1="80" x2="0" y2="80" gradientUnits="userSpaceOnUse">
<stop stop-color="#00ACF0"/>
<stop offset="1" stop-color="#1D2E8A"/>
</linearGradient>
<linearGradient id="paint9_linear_19_348" x1="160" y1="80" x2="0" y2="80" gradientUnits="userSpaceOnUse">
<stop stop-color="#00ACF0"/>
<stop offset="1" stop-color="#1D2E8A"/>
</linearGradient>
<linearGradient id="paint10_linear_19_348" x1="160" y1="80" x2="0" y2="80" gradientUnits="userSpaceOnUse">
<stop stop-color="#00ACF0"/>
<stop offset="1" stop-color="#1D2E8A"/>
</linearGradient>
<linearGradient id="paint11_linear_19_348" x1="160" y1="80" x2="0" y2="80" gradientUnits="userSpaceOnUse">
<stop stop-color="#00ACF0"/>
<stop offset="1" stop-color="#1D2E8A"/>
</linearGradient>
<linearGradient id="paint12_linear_19_348" x1="160" y1="80" x2="0" y2="80" gradientUnits="userSpaceOnUse">
<stop stop-color="#00ACF0"/>
<stop offset="1" stop-color="#1D2E8A"/>
</linearGradient>
<linearGradient id="paint13_linear_19_348" x1="160" y1="80" x2="0" y2="80" gradientUnits="userSpaceOnUse">
<stop stop-color="#00ACF0"/>
<stop offset="1" stop-color="#1D2E8A"/>
</linearGradient>
<linearGradient id="paint14_linear_19_348" x1="160" y1="80" x2="0" y2="80" gradientUnits="userSpaceOnUse">
<stop stop-color="#00ACF0"/>
<stop offset="1" stop-color="#1D2E8A"/>
</linearGradient>
<linearGradient id="paint15_linear_19_348" x1="160" y1="80" x2="0" y2="80" gradientUnits="userSpaceOnUse">
<stop stop-color="#00ACF0"/>
<stop offset="1" stop-color="#1D2E8A"/>
</linearGradient>
<linearGradient id="paint16_linear_19_348" x1="160" y1="80" x2="0" y2="80" gradientUnits="userSpaceOnUse">
<stop stop-color="#00ACF0"/>
<stop offset="1" stop-color="#1D2E8A"/>
</linearGradient>
<linearGradient id="paint17_linear_19_348" x1="160" y1="80" x2="0" y2="80" gradientUnits="userSpaceOnUse">
<stop stop-color="#00ACF0"/>
<stop offset="1" stop-color="#1D2E8A"/>
</linearGradient>
<linearGradient id="paint18_linear_19_348" x1="160" y1="80" x2="0" y2="80" gradientUnits="userSpaceOnUse">
<stop stop-color="#00ACF0"/>
<stop offset="1" stop-color="#1D2E8A"/>
</linearGradient>
<linearGradient id="paint19_linear_19_348" x1="160" y1="80" x2="0" y2="80" gradientUnits="userSpaceOnUse">
<stop stop-color="#00ACF0"/>
<stop offset="1" stop-color="#1D2E8A"/>
</linearGradient>
<linearGradient id="paint20_linear_19_348" x1="160" y1="80" x2="0" y2="80" gradientUnits="userSpaceOnUse">
<stop stop-color="#00ACF0"/>
<stop offset="1" stop-color="#1D2E8A"/>
</linearGradient>
<linearGradient id="paint21_linear_19_348" x1="160" y1="80" x2="0" y2="80" gradientUnits="userSpaceOnUse">
<stop stop-color="#00ACF0"/>
<stop offset="1" stop-color="#1D2E8A"/>
</linearGradient>
<linearGradient id="paint22_linear_19_348" x1="160" y1="80" x2="0" y2="80" gradientUnits="userSpaceOnUse">
<stop stop-color="#00ACF0"/>
<stop offset="1" stop-color="#1D2E8A"/>
</linearGradient>
<linearGradient id="paint23_linear_19_348" x1="160" y1="80" x2="0" y2="80" gradientUnits="userSpaceOnUse">
<stop stop-color="#00ACF0"/>
<stop offset="1" stop-color="#1D2E8A"/>
</linearGradient>
<linearGradient id="paint24_linear_19_348" x1="241" y1="80" x2="915" y2="80" gradientUnits="userSpaceOnUse">
<stop stop-color="#E14234"/>
<stop offset="1" stop-color="#FBA93B"/>
</linearGradient>
</defs>
</svg>
