<svg width="398" height="391" viewBox="0 0 398 391" fill="none" xmlns="http://www.w3.org/2000/svg">
<mask id="path-1-inside-1_534_1757" fill="white">
<path fill-rule="evenodd" clip-rule="evenodd" d="M130.938 69.68C100.59 61.7378 74.7672 63.2379 55.2694 72.3509L52.3836 68.1849L43.1707 79.5765C17.7327 98.6366 8.12802 134.66 20.8641 181.07C43.7567 264.489 130.155 349.867 213.84 371.768L221.015 373.646C304.7 395.546 353.982 345.675 331.09 262.256C308.197 178.837 221.799 93.4583 138.114 71.5579L130.938 69.68Z"/>
</mask>
<path fill-rule="evenodd" clip-rule="evenodd" d="M130.938 69.68C100.59 61.7378 74.7672 63.2379 55.2694 72.3509L52.3836 68.1849L43.1707 79.5765C17.7327 98.6366 8.12802 134.66 20.8641 181.07C43.7567 264.489 130.155 349.867 213.84 371.768L221.015 373.646C304.7 395.546 353.982 345.675 331.09 262.256C308.197 178.837 221.799 93.4583 138.114 71.5579L130.938 69.68Z" fill="url(#paint0_linear_534_1757)"/>
<path d="M130.938 69.68L131.656 66.937L131.656 66.937L130.938 69.68ZM55.2694 72.3509L56.4699 74.9195L54.3015 75.933L52.9385 73.9654L55.2694 72.3509ZM52.3836 68.1849L50.179 66.4019L52.5592 63.4588L54.7144 66.5703L52.3836 68.1849ZM43.1707 79.5765L45.3754 81.3594L45.1534 81.6339L44.8709 81.8456L43.1707 79.5765ZM20.8641 181.07L18.1298 181.82V181.82L20.8641 181.07ZM213.84 371.768L214.558 369.025H214.558L213.84 371.768ZM221.015 373.646L220.298 376.389H220.298L221.015 373.646ZM331.09 262.256L333.824 261.506H333.824L331.09 262.256ZM138.114 71.5579L137.396 74.3009L137.396 74.3009L138.114 71.5579ZM130.938 69.68L130.22 72.423C100.306 64.5945 75.2003 66.1653 56.4699 74.9195L55.2694 72.3509L54.0688 69.7822C74.3342 60.3106 100.873 58.8811 131.656 66.937L130.938 69.68ZM55.2694 72.3509L52.9385 73.9654L50.0528 69.7994L52.3836 68.1849L54.7144 66.5703L57.6002 70.7363L55.2694 72.3509ZM52.3836 68.1849L54.5883 69.9678L45.3754 81.3594L43.1707 79.5765L40.9661 77.7935L50.179 66.4019L52.3836 68.1849ZM43.1707 79.5765L44.8709 81.8456C20.7097 99.949 11.0382 134.551 23.5984 180.319L20.8641 181.07L18.1298 181.82C5.21783 134.77 14.7557 97.3242 41.4706 77.3074L43.1707 79.5765ZM20.8641 181.07L23.5984 180.319C34.882 221.436 61.8862 263.219 96.5477 297.471C131.209 331.724 173.31 358.23 214.558 369.025L213.84 371.768L213.122 374.511C170.685 363.405 127.744 336.272 92.5618 301.505C57.3799 266.738 29.7388 224.122 18.1298 181.82L20.8641 181.07ZM213.84 371.768L214.558 369.025L221.733 370.903L221.015 373.646L220.298 376.389L213.122 374.511L213.84 371.768ZM221.015 373.646L221.733 370.903C262.999 381.702 295.046 374.636 314.002 355.453C332.959 336.27 339.644 304.141 328.355 263.007L331.09 262.256L333.824 261.506C345.428 303.79 338.919 338.306 318.036 359.439C297.153 380.571 262.717 387.49 220.298 376.389L221.015 373.646ZM331.09 262.256L328.355 263.007C317.072 221.89 290.068 180.107 255.406 145.854C220.744 111.602 178.644 85.0955 137.396 74.3009L138.114 71.5579L138.832 68.8149C181.269 79.9208 224.21 107.054 259.392 141.821C294.574 176.587 322.215 219.203 333.824 261.506L331.09 262.256ZM138.114 71.5579L137.396 74.3009L130.22 72.423L130.938 69.68L131.656 66.937L138.832 68.8149L138.114 71.5579Z" fill="url(#paint1_linear_534_1757)" mask="url(#path-1-inside-1_534_1757)"/>
<path d="M130.938 69.68L131.656 66.937L131.656 66.937L130.938 69.68ZM55.2694 72.3509L56.4699 74.9195L54.3015 75.933L52.9385 73.9654L55.2694 72.3509ZM52.3836 68.1849L50.179 66.4019L52.5592 63.4588L54.7144 66.5703L52.3836 68.1849ZM43.1707 79.5765L45.3754 81.3594L45.1534 81.6339L44.8709 81.8456L43.1707 79.5765ZM20.8641 181.07L18.1298 181.82V181.82L20.8641 181.07ZM213.84 371.768L214.558 369.025H214.558L213.84 371.768ZM221.015 373.646L220.298 376.389H220.298L221.015 373.646ZM331.09 262.256L333.824 261.506H333.824L331.09 262.256ZM138.114 71.5579L137.396 74.3009L137.396 74.3009L138.114 71.5579ZM130.938 69.68L130.22 72.423C100.306 64.5945 75.2003 66.1653 56.4699 74.9195L55.2694 72.3509L54.0688 69.7822C74.3342 60.3106 100.873 58.8811 131.656 66.937L130.938 69.68ZM55.2694 72.3509L52.9385 73.9654L50.0528 69.7994L52.3836 68.1849L54.7144 66.5703L57.6002 70.7363L55.2694 72.3509ZM52.3836 68.1849L54.5883 69.9678L45.3754 81.3594L43.1707 79.5765L40.9661 77.7935L50.179 66.4019L52.3836 68.1849ZM43.1707 79.5765L44.8709 81.8456C20.7097 99.949 11.0382 134.551 23.5984 180.319L20.8641 181.07L18.1298 181.82C5.21783 134.77 14.7557 97.3242 41.4706 77.3074L43.1707 79.5765ZM20.8641 181.07L23.5984 180.319C34.882 221.436 61.8862 263.219 96.5477 297.471C131.209 331.724 173.31 358.23 214.558 369.025L213.84 371.768L213.122 374.511C170.685 363.405 127.744 336.272 92.5618 301.505C57.3799 266.738 29.7388 224.122 18.1298 181.82L20.8641 181.07ZM213.84 371.768L214.558 369.025L221.733 370.903L221.015 373.646L220.298 376.389L213.122 374.511L213.84 371.768ZM221.015 373.646L221.733 370.903C262.999 381.702 295.046 374.636 314.002 355.453C332.959 336.27 339.644 304.141 328.355 263.007L331.09 262.256L333.824 261.506C345.428 303.79 338.919 338.306 318.036 359.439C297.153 380.571 262.717 387.49 220.298 376.389L221.015 373.646ZM331.09 262.256L328.355 263.007C317.072 221.89 290.068 180.107 255.406 145.854C220.744 111.602 178.644 85.0955 137.396 74.3009L138.114 71.5579L138.832 68.8149C181.269 79.9208 224.21 107.054 259.392 141.821C294.574 176.587 322.215 219.203 333.824 261.506L331.09 262.256ZM138.114 71.5579L137.396 74.3009L130.22 72.423L130.938 69.68L131.656 66.937L138.832 68.8149L138.114 71.5579Z" fill="url(#paint2_linear_534_1757)" mask="url(#path-1-inside-1_534_1757)"/>
<mask id="path-3-inside-2_534_1757" fill="white">
<path fill-rule="evenodd" clip-rule="evenodd" d="M134.368 63.6762C104.215 55.7852 78.5283 57.2134 59.0751 66.1704L55.1835 60.4663L39.1571 80.0913C36.4474 82.859 33.9854 85.8709 31.786 89.1176L31.37 89.6264V89.7436C17.8829 110.146 14.5521 139.568 24.2939 175.066C47.1864 258.485 133.585 343.864 217.269 365.764L224.446 367.642C308.131 389.542 357.413 339.671 334.52 256.252C311.628 172.833 225.229 87.4546 141.544 65.5542L134.368 63.6762Z"/>
</mask>
<path fill-rule="evenodd" clip-rule="evenodd" d="M134.368 63.6762C104.215 55.7852 78.5283 57.2134 59.0751 66.1704L55.1835 60.4663L39.1571 80.0913C36.4474 82.859 33.9854 85.8709 31.786 89.1176L31.37 89.6264V89.7436C17.8829 110.146 14.5521 139.568 24.2939 175.066C47.1864 258.485 133.585 343.864 217.269 365.764L224.446 367.642C308.131 389.542 357.413 339.671 334.52 256.252C311.628 172.833 225.229 87.4546 141.544 65.5542L134.368 63.6762Z" fill="url(#paint3_linear_534_1757)"/>
<path d="M134.368 63.6762L135.086 60.9332L135.086 60.9332L134.368 63.6762ZM59.0751 66.1704L60.261 68.7459L58.0837 69.7483L56.7329 67.7683L59.0751 66.1704ZM55.1835 60.4663L52.9874 58.6728L55.3873 55.734L57.5257 58.8683L55.1835 60.4663ZM39.1571 80.0913L41.3533 81.8847L41.2725 81.9836L41.1831 82.0749L39.1571 80.0913ZM31.786 89.1176L34.1335 90.7078L34.0619 90.8136L33.981 90.9124L31.786 89.1176ZM31.37 89.6264H28.5346V88.6148L29.175 87.8316L31.37 89.6264ZM31.37 89.7436H34.2054V90.5961L33.7353 91.3072L31.37 89.7436ZM24.2939 175.066L21.5595 175.816V175.816L24.2939 175.066ZM217.269 365.764L216.552 368.507H216.552L217.269 365.764ZM224.446 367.642L225.164 364.899L225.164 364.899L224.446 367.642ZM334.52 256.252L337.255 255.502H337.255L334.52 256.252ZM141.544 65.5542L140.826 68.2972V68.2972L141.544 65.5542ZM134.368 63.6762L133.65 66.4192C103.929 58.6412 78.9518 60.1399 60.261 68.7459L59.0751 66.1704L57.8893 63.5949C78.1048 54.2869 104.501 52.9291 135.086 60.9332L134.368 63.6762ZM59.0751 66.1704L56.7329 67.7683L52.8413 62.0642L55.1835 60.4663L57.5257 58.8683L61.4173 64.5724L59.0751 66.1704ZM55.1835 60.4663L57.3796 62.2597L41.3533 81.8847L39.1571 80.0913L36.961 78.2978L52.9874 58.6728L55.1835 60.4663ZM39.1571 80.0913L41.1831 82.0749C38.5926 84.7208 36.2381 87.6009 34.1335 90.7078L31.786 89.1176L29.4385 87.5275C31.7326 84.1408 34.3021 80.9972 37.1311 78.1077L39.1571 80.0913ZM31.786 89.1176L33.981 90.9124L33.565 91.4212L31.37 89.6264L29.175 87.8316L29.591 87.3229L31.786 89.1176ZM31.37 89.6264H34.2054V89.7436H31.37H28.5346V89.6264H31.37ZM31.37 89.7436L33.7353 91.3072C20.8423 110.811 17.4229 139.315 27.0281 174.316L24.2939 175.066L21.5595 175.816C11.6813 139.821 14.9235 109.481 29.0047 88.18L31.37 89.7436ZM24.2939 175.066L27.0281 174.316C38.3117 215.432 65.3159 257.215 99.9775 291.468C134.639 325.72 176.74 352.226 217.987 363.021L217.269 365.764L216.552 368.507C174.114 357.401 131.173 330.268 95.9915 295.501C60.8097 260.734 33.1685 218.119 21.5595 175.816L24.2939 175.066ZM217.269 365.764L217.987 363.021L225.164 364.899L224.446 367.642L223.728 370.385L216.552 368.507L217.269 365.764ZM224.446 367.642L225.164 364.899C266.429 375.698 298.477 368.632 317.433 349.449C336.389 330.266 343.075 298.137 331.786 257.003L334.52 256.252L337.255 255.502C348.859 297.786 342.349 332.302 321.467 353.435C300.584 374.567 266.148 381.486 223.728 370.385L224.446 367.642ZM334.52 256.252L331.786 257.003C320.502 215.886 293.498 174.103 258.836 139.851C224.174 105.598 182.074 79.0918 140.826 68.2972L141.544 65.5542L142.262 62.8112C184.699 73.917 227.64 101.05 262.822 135.817C298.004 170.584 325.646 213.2 337.255 255.502L334.52 256.252ZM141.544 65.5542L140.826 68.2972L133.65 66.4192L134.368 63.6762L135.086 60.9332L142.262 62.8112L141.544 65.5542Z" fill="url(#paint4_linear_534_1757)" mask="url(#path-3-inside-2_534_1757)"/>
<path d="M134.368 63.6762L135.086 60.9332L135.086 60.9332L134.368 63.6762ZM59.0751 66.1704L60.261 68.7459L58.0837 69.7483L56.7329 67.7683L59.0751 66.1704ZM55.1835 60.4663L52.9874 58.6728L55.3873 55.734L57.5257 58.8683L55.1835 60.4663ZM39.1571 80.0913L41.3533 81.8847L41.2725 81.9836L41.1831 82.0749L39.1571 80.0913ZM31.786 89.1176L34.1335 90.7078L34.0619 90.8136L33.981 90.9124L31.786 89.1176ZM31.37 89.6264H28.5346V88.6148L29.175 87.8316L31.37 89.6264ZM31.37 89.7436H34.2054V90.5961L33.7353 91.3072L31.37 89.7436ZM24.2939 175.066L21.5595 175.816V175.816L24.2939 175.066ZM217.269 365.764L216.552 368.507H216.552L217.269 365.764ZM224.446 367.642L225.164 364.899L225.164 364.899L224.446 367.642ZM334.52 256.252L337.255 255.502H337.255L334.52 256.252ZM141.544 65.5542L140.826 68.2972V68.2972L141.544 65.5542ZM134.368 63.6762L133.65 66.4192C103.929 58.6412 78.9518 60.1399 60.261 68.7459L59.0751 66.1704L57.8893 63.5949C78.1048 54.2869 104.501 52.9291 135.086 60.9332L134.368 63.6762ZM59.0751 66.1704L56.7329 67.7683L52.8413 62.0642L55.1835 60.4663L57.5257 58.8683L61.4173 64.5724L59.0751 66.1704ZM55.1835 60.4663L57.3796 62.2597L41.3533 81.8847L39.1571 80.0913L36.961 78.2978L52.9874 58.6728L55.1835 60.4663ZM39.1571 80.0913L41.1831 82.0749C38.5926 84.7208 36.2381 87.6009 34.1335 90.7078L31.786 89.1176L29.4385 87.5275C31.7326 84.1408 34.3021 80.9972 37.1311 78.1077L39.1571 80.0913ZM31.786 89.1176L33.981 90.9124L33.565 91.4212L31.37 89.6264L29.175 87.8316L29.591 87.3229L31.786 89.1176ZM31.37 89.6264H34.2054V89.7436H31.37H28.5346V89.6264H31.37ZM31.37 89.7436L33.7353 91.3072C20.8423 110.811 17.4229 139.315 27.0281 174.316L24.2939 175.066L21.5595 175.816C11.6813 139.821 14.9235 109.481 29.0047 88.18L31.37 89.7436ZM24.2939 175.066L27.0281 174.316C38.3117 215.432 65.3159 257.215 99.9775 291.468C134.639 325.72 176.74 352.226 217.987 363.021L217.269 365.764L216.552 368.507C174.114 357.401 131.173 330.268 95.9915 295.501C60.8097 260.734 33.1685 218.119 21.5595 175.816L24.2939 175.066ZM217.269 365.764L217.987 363.021L225.164 364.899L224.446 367.642L223.728 370.385L216.552 368.507L217.269 365.764ZM224.446 367.642L225.164 364.899C266.429 375.698 298.477 368.632 317.433 349.449C336.389 330.266 343.075 298.137 331.786 257.003L334.52 256.252L337.255 255.502C348.859 297.786 342.349 332.302 321.467 353.435C300.584 374.567 266.148 381.486 223.728 370.385L224.446 367.642ZM334.52 256.252L331.786 257.003C320.502 215.886 293.498 174.103 258.836 139.851C224.174 105.598 182.074 79.0918 140.826 68.2972L141.544 65.5542L142.262 62.8112C184.699 73.917 227.64 101.05 262.822 135.817C298.004 170.584 325.646 213.2 337.255 255.502L334.52 256.252ZM141.544 65.5542L140.826 68.2972L133.65 66.4192L134.368 63.6762L135.086 60.9332L142.262 62.8112L141.544 65.5542Z" fill="url(#paint5_linear_534_1757)" mask="url(#path-3-inside-2_534_1757)"/>
<rect x="-0.99632" y="1.00822" width="310.42" height="317.838" rx="155.21" transform="matrix(0.264645 0.964346 -0.967421 -0.253175 310.468 91.1371)" fill="url(#paint6_linear_534_1757)"/>
<rect x="-0.99632" y="1.00822" width="310.42" height="317.838" rx="155.21" transform="matrix(0.264645 0.964346 -0.967421 -0.253175 310.468 91.1371)" stroke="url(#paint7_linear_534_1757)" stroke-width="2.83538"/>
<rect x="-0.99632" y="1.00822" width="310.42" height="317.838" rx="155.21" transform="matrix(0.264645 0.964346 -0.967421 -0.253175 310.468 91.1371)" stroke="url(#paint8_linear_534_1757)" stroke-width="2.83538"/>
<rect x="-0.808192" y="0.817847" width="313.918" height="320.487" rx="156.959" transform="matrix(0.264645 0.964346 -0.967421 -0.253175 314.478 83.5257)" fill="url(#paint9_radial_534_1757)"/>
<rect x="-0.808192" y="0.817847" width="313.918" height="320.487" rx="156.959" transform="matrix(0.264645 0.964346 -0.967421 -0.253175 314.478 83.5257)" stroke="url(#paint10_linear_534_1757)" stroke-width="2.3"/>
<rect x="-0.808192" y="0.817847" width="313.918" height="320.487" rx="156.959" transform="matrix(0.264645 0.964346 -0.967421 -0.253175 314.478 83.5257)" stroke="url(#paint11_linear_534_1757)" stroke-width="2.3"/>
<g filter="url(#filter0_i_534_1757)">
<path d="M175.169 115.151L175.732 118.141L200.131 164.244L212.139 168.532L255.311 181.982L175.169 115.151Z" fill="url(#paint12_linear_534_1757)"/>
<path d="M175.169 115.151L175.732 118.141L200.131 164.244L212.139 168.532L255.311 181.982L175.169 115.151Z" stroke="url(#paint13_linear_534_1757)"/>
<path d="M175.169 115.151L175.732 118.141L200.131 164.244L212.139 168.532L255.311 181.982L175.169 115.151Z" stroke="url(#paint14_linear_534_1757)"/>
</g>
<g filter="url(#filter1_i_534_1757)">
<path d="M174.396 115L163.745 181.831L186.496 170.616L199.624 163.524L174.396 115Z" fill="url(#paint15_linear_534_1757)"/>
<path d="M174.396 115L163.745 181.831L186.496 170.616L199.624 163.524L174.396 115Z" stroke="url(#paint16_linear_534_1757)"/>
<path d="M174.396 115L163.745 181.831L186.496 170.616L199.624 163.524L174.396 115Z" stroke="url(#paint17_linear_534_1757)"/>
</g>
<g filter="url(#filter2_i_534_1757)">
<path d="M229.099 218.895L228.854 219.499L244.924 250.409L246.236 251.857L262.151 195.098L229.099 218.895Z" fill="url(#paint18_linear_534_1757)"/>
<path d="M229.099 218.895L228.854 219.499L244.924 250.409L246.236 251.857L262.151 195.098L229.099 218.895Z" stroke="url(#paint19_linear_534_1757)"/>
<path d="M229.099 218.895L228.854 219.499L244.924 250.409L246.236 251.857L262.151 195.098L229.099 218.895Z" stroke="url(#paint20_linear_534_1757)"/>
</g>
<g filter="url(#filter3_i_534_1757)">
<path d="M246.239 251.857L229.102 218.895L171.334 195.098L246.239 251.857Z" fill="url(#paint21_linear_534_1757)"/>
<path d="M246.239 251.857L229.102 218.895L171.334 195.098L246.239 251.857Z" stroke="url(#paint22_linear_534_1757)"/>
<path d="M246.239 251.857L229.102 218.895L171.334 195.098L246.239 251.857Z" stroke="url(#paint23_linear_534_1757)"/>
</g>
<g filter="url(#filter4_i_534_1757)">
<path d="M222.296 205.79L255.314 181.982L200.4 163.675L222.296 205.79Z" fill="url(#paint24_linear_534_1757)"/>
<path d="M222.296 205.79L255.314 181.982L200.4 163.675L222.296 205.79Z" stroke="url(#paint25_linear_534_1757)"/>
<path d="M222.296 205.79L255.314 181.982L200.4 163.675L222.296 205.79Z" stroke="url(#paint26_linear_534_1757)"/>
</g>
<g filter="url(#filter5_i_534_1757)">
<path d="M164.515 181.982L222.289 205.791L200.393 163.675L164.515 181.982Z" fill="url(#paint27_linear_534_1757)"/>
<path d="M164.515 181.982L222.289 205.791L200.393 163.675L164.515 181.982Z" stroke="url(#paint28_linear_534_1757)"/>
<path d="M164.515 181.982L222.289 205.791L200.393 163.675L164.515 181.982Z" stroke="url(#paint29_linear_534_1757)"/>
</g>
<defs>
<filter id="filter0_i_534_1757" x="175.169" y="115.151" width="80.1421" height="67.8314" filterUnits="userSpaceOnUse" color-interpolation-filters="sRGB">
<feFlood flood-opacity="0" result="BackgroundImageFix"/>
<feBlend mode="normal" in="SourceGraphic" in2="BackgroundImageFix" result="shape"/>
<feColorMatrix in="SourceAlpha" type="matrix" values="0 0 0 0 0 0 0 0 0 0 0 0 0 0 0 0 0 0 127 0" result="hardAlpha"/>
<feOffset dy="3"/>
<feGaussianBlur stdDeviation="0.5"/>
<feComposite in2="hardAlpha" operator="arithmetic" k2="-1" k3="1"/>
<feColorMatrix type="matrix" values="0 0 0 0 0.054902 0 0 0 0 0.647059 0 0 0 0 0.913725 0 0 0 1 0"/>
<feBlend mode="normal" in2="shape" result="effect1_innerShadow_534_1757"/>
</filter>
<filter id="filter1_i_534_1757" x="163.745" y="115" width="35.8784" height="67.8314" filterUnits="userSpaceOnUse" color-interpolation-filters="sRGB">
<feFlood flood-opacity="0" result="BackgroundImageFix"/>
<feBlend mode="normal" in="SourceGraphic" in2="BackgroundImageFix" result="shape"/>
<feColorMatrix in="SourceAlpha" type="matrix" values="0 0 0 0 0 0 0 0 0 0 0 0 0 0 0 0 0 0 127 0" result="hardAlpha"/>
<feOffset dy="3"/>
<feGaussianBlur stdDeviation="0.5"/>
<feComposite in2="hardAlpha" operator="arithmetic" k2="-1" k3="1"/>
<feColorMatrix type="matrix" values="0 0 0 0 0.054902 0 0 0 0 0.647059 0 0 0 0 0.913725 0 0 0 1 0"/>
<feBlend mode="normal" in2="shape" result="effect1_innerShadow_534_1757"/>
</filter>
<filter id="filter2_i_534_1757" x="228.854" y="195.098" width="33.2964" height="58.7585" filterUnits="userSpaceOnUse" color-interpolation-filters="sRGB">
<feFlood flood-opacity="0" result="BackgroundImageFix"/>
<feBlend mode="normal" in="SourceGraphic" in2="BackgroundImageFix" result="shape"/>
<feColorMatrix in="SourceAlpha" type="matrix" values="0 0 0 0 0 0 0 0 0 0 0 0 0 0 0 0 0 0 127 0" result="hardAlpha"/>
<feOffset dy="3"/>
<feGaussianBlur stdDeviation="1"/>
<feComposite in2="hardAlpha" operator="arithmetic" k2="-1" k3="1"/>
<feColorMatrix type="matrix" values="0 0 0 0 0.054902 0 0 0 0 0.647059 0 0 0 0 0.913725 0 0 0 1 0"/>
<feBlend mode="normal" in2="shape" result="effect1_innerShadow_534_1757"/>
</filter>
<filter id="filter3_i_534_1757" x="171.334" y="195.098" width="74.9058" height="57.7588" filterUnits="userSpaceOnUse" color-interpolation-filters="sRGB">
<feFlood flood-opacity="0" result="BackgroundImageFix"/>
<feBlend mode="normal" in="SourceGraphic" in2="BackgroundImageFix" result="shape"/>
<feColorMatrix in="SourceAlpha" type="matrix" values="0 0 0 0 0 0 0 0 0 0 0 0 0 0 0 0 0 0 127 0" result="hardAlpha"/>
<feOffset dy="3"/>
<feGaussianBlur stdDeviation="0.5"/>
<feComposite in2="hardAlpha" operator="arithmetic" k2="-1" k3="1"/>
<feColorMatrix type="matrix" values="0 0 0 0 0.054902 0 0 0 0 0.647059 0 0 0 0 0.913725 0 0 0 1 0"/>
<feBlend mode="normal" in2="shape" result="effect1_innerShadow_534_1757"/>
</filter>
<filter id="filter4_i_534_1757" x="200.4" y="163.675" width="54.9141" height="43.1155" filterUnits="userSpaceOnUse" color-interpolation-filters="sRGB">
<feFlood flood-opacity="0" result="BackgroundImageFix"/>
<feBlend mode="normal" in="SourceGraphic" in2="BackgroundImageFix" result="shape"/>
<feColorMatrix in="SourceAlpha" type="matrix" values="0 0 0 0 0 0 0 0 0 0 0 0 0 0 0 0 0 0 127 0" result="hardAlpha"/>
<feOffset dy="3"/>
<feGaussianBlur stdDeviation="0.5"/>
<feComposite in2="hardAlpha" operator="arithmetic" k2="-1" k3="1"/>
<feColorMatrix type="matrix" values="0 0 0 0 0.054902 0 0 0 0 0.647059 0 0 0 0 0.913725 0 0 0 1 0"/>
<feBlend mode="normal" in2="shape" result="effect1_innerShadow_534_1757"/>
</filter>
<filter id="filter5_i_534_1757" x="163.515" y="163.675" width="58.7739" height="43.1158" filterUnits="userSpaceOnUse" color-interpolation-filters="sRGB">
<feFlood flood-opacity="0" result="BackgroundImageFix"/>
<feBlend mode="normal" in="SourceGraphic" in2="BackgroundImageFix" result="shape"/>
<feColorMatrix in="SourceAlpha" type="matrix" values="0 0 0 0 0 0 0 0 0 0 0 0 0 0 0 0 0 0 127 0" result="hardAlpha"/>
<feOffset dx="-1" dy="3"/>
<feGaussianBlur stdDeviation="0.5"/>
<feComposite in2="hardAlpha" operator="arithmetic" k2="-1" k3="1"/>
<feColorMatrix type="matrix" values="0 0 0 0 0.054902 0 0 0 0 0.647059 0 0 0 0 0.913725 0 0 0 1 0"/>
<feBlend mode="normal" in2="shape" result="effect1_innerShadow_534_1757"/>
</filter>
<linearGradient id="paint0_linear_534_1757" x1="215.337" y1="368.37" x2="-49.6824" y2="75.476" gradientUnits="userSpaceOnUse">
<stop offset="0.0298615"/>
<stop offset="0.0689637" stop-color="#000B72"/>
<stop offset="0.117297" stop-color="#232D85"/>
<stop offset="0.357888" stop-color="#6CD3FF"/>
<stop offset="0.532047" stop-color="#428392"/>
<stop offset="0.557944" stop-color="#95C0DF"/>
<stop offset="0.585383" stop-color="#446A93"/>
<stop offset="0.625647" stop-color="#293D80"/>
<stop offset="0.677455" stop-color="#181757"/>
<stop offset="0.724833" stop-color="#364FA5"/>
<stop offset="0.765276" stop-color="#93B0F3"/>
<stop offset="0.81218" stop-color="#6CA7FF"/>
<stop offset="0.831945" stop-color="#B4D2FF"/>
<stop offset="0.839783" stop-color="white"/>
</linearGradient>
<linearGradient id="paint1_linear_534_1757" x1="77.1093" y1="206.079" x2="11.9492" y2="164.931" gradientUnits="userSpaceOnUse">
<stop stop-color="#5B53BE" stop-opacity="0"/>
<stop offset="1" stop-color="#C8EAFF"/>
</linearGradient>
<linearGradient id="paint2_linear_534_1757" x1="323.431" y1="140.243" x2="223.28" y2="185.356" gradientUnits="userSpaceOnUse">
<stop stop-color="white"/>
<stop offset="0.398028" stop-color="#C8E4FF"/>
<stop offset="1" stop-color="#5391BE" stop-opacity="0"/>
</linearGradient>
<linearGradient id="paint3_linear_534_1757" x1="251.791" y1="395.815" x2="-47.1077" y2="67.7565" gradientUnits="userSpaceOnUse">
<stop offset="0.0298615"/>
<stop offset="0.0689637" stop-color="#000B72"/>
<stop offset="0.117297" stop-color="#232D85"/>
<stop offset="0.357888" stop-color="#0EA5E9"/>
<stop offset="0.532047" stop-color="#424592"/>
<stop offset="0.557944" stop-color="#95BBDF"/>
<stop offset="0.585383" stop-color="#464493"/>
<stop offset="0.625647" stop-color="#293680"/>
<stop offset="0.677455" stop-color="#255486"/>
<stop offset="0.724833" stop-color="#5090FF"/>
<stop offset="0.765276" stop-color="#93BAF3"/>
<stop offset="0.81218" stop-color="#6CC2FF"/>
<stop offset="0.831945" stop-color="#B4D2FF"/>
<stop offset="0.839783" stop-color="white"/>
</linearGradient>
<linearGradient id="paint4_linear_534_1757" x1="80.5397" y1="200.075" x2="15.3795" y2="158.927" gradientUnits="userSpaceOnUse">
<stop stop-color="#5B53BE" stop-opacity="0"/>
<stop offset="1" stop-color="#C8EAFF"/>
</linearGradient>
<linearGradient id="paint5_linear_534_1757" x1="326.862" y1="134.239" x2="226.711" y2="179.351" gradientUnits="userSpaceOnUse">
<stop stop-color="white"/>
<stop offset="0.398028" stop-color="#C8E4FF"/>
<stop offset="1" stop-color="#5391BE" stop-opacity="0"/>
</linearGradient>
<linearGradient id="paint6_linear_534_1757" x1="273.303" y1="116.754" x2="77.96" y2="334.165" gradientUnits="userSpaceOnUse">
<stop offset="0.0298615" stop-color="#1E40AF"/>
<stop offset="0.0689637" stop-color="#000B72"/>
<stop offset="0.117297" stop-color="#232D85"/>
<stop offset="0.532047" stop-color="#424592"/>
<stop offset="0.557944" stop-color="#7692AC"/>
<stop offset="0.585383" stop-color="#464493"/>
<stop offset="0.625647" stop-color="#352980"/>
<stop offset="0.677455" stop-color="#181757"/>
<stop offset="0.724833" stop-color="#3653A5"/>
<stop offset="0.765276" stop-color="#18B7FF"/>
<stop offset="0.81218" stop-color="#0EA5E9"/>
<stop offset="0.878837" stop-color="#BEBBFF"/>
<stop offset="0.914219" stop-color="#D3D4FF"/>
<stop offset="0.932061" stop-color="white"/>
</linearGradient>
<linearGradient id="paint7_linear_534_1757" x1="252.979" y1="144.435" x2="318.11" y2="105.152" gradientUnits="userSpaceOnUse">
<stop stop-color="#5B53BE" stop-opacity="0"/>
<stop offset="1" stop-color="#C8EAFF"/>
</linearGradient>
<linearGradient id="paint8_linear_534_1757" x1="12.9278" y1="77.2594" x2="111.996" y2="119.881" gradientUnits="userSpaceOnUse">
<stop stop-color="white"/>
<stop offset="0.398028" stop-color="#C8E4FF"/>
<stop offset="1" stop-color="#5391BE" stop-opacity="0"/>
</linearGradient>
<radialGradient id="paint9_radial_534_1757" cx="0" cy="0" r="1" gradientTransform="matrix(176.064 -293.16 888.583 752.161 -4.84801 229.792)" gradientUnits="userSpaceOnUse">
<stop stop-color="white"/>
<stop offset="0.134042" stop-color="#A4E3FF"/>
<stop offset="0.331547" stop-color="#0EA5E9"/>
<stop offset="0.518827" stop-color="#0EA5E9"/>
<stop offset="0.716546" stop-color="#1E40AF"/>
<stop offset="0.887916" stop-color="#002497"/>
<stop offset="1"/>
</radialGradient>
<linearGradient id="paint10_linear_534_1757" x1="255.371" y1="145.387" x2="321.018" y2="105.68" gradientUnits="userSpaceOnUse">
<stop stop-color="#5B53BE" stop-opacity="0"/>
<stop offset="1" stop-color="#C8EAFF"/>
</linearGradient>
<linearGradient id="paint11_linear_534_1757" x1="13.0501" y1="77.7686" x2="112.966" y2="120.877" gradientUnits="userSpaceOnUse">
<stop stop-color="white"/>
<stop offset="0.398028" stop-color="#C8E4FF"/>
<stop offset="1" stop-color="#5391BE" stop-opacity="0"/>
</linearGradient>
<linearGradient id="paint12_linear_534_1757" x1="217.713" y1="156.525" x2="191.126" y2="95.6301" gradientUnits="userSpaceOnUse">
<stop stop-color="white"/>
<stop offset="1" stop-color="white" stop-opacity="0"/>
</linearGradient>
<linearGradient id="paint13_linear_534_1757" x1="227.289" y1="145.252" x2="234.214" y2="138.685" gradientUnits="userSpaceOnUse">
<stop stop-color="#5B53BE" stop-opacity="0"/>
<stop offset="1" stop-color="#C8EAFF"/>
</linearGradient>
<linearGradient id="paint14_linear_534_1757" x1="184.463" y1="131.252" x2="201.086" y2="127.692" gradientUnits="userSpaceOnUse">
<stop stop-color="white"/>
<stop offset="0.398028" stop-color="#C8E4FF"/>
<stop offset="1" stop-color="#5391BE" stop-opacity="0"/>
</linearGradient>
<linearGradient id="paint15_linear_534_1757" x1="188.64" y1="161.52" x2="164.626" y2="120.352" gradientUnits="userSpaceOnUse">
<stop stop-color="white"/>
<stop offset="1" stop-color="white" stop-opacity="0"/>
</linearGradient>
<linearGradient id="paint16_linear_534_1757" x1="181.311" y1="145.102" x2="188.15" y2="138.678" gradientUnits="userSpaceOnUse">
<stop stop-color="#5B53BE" stop-opacity="0"/>
<stop offset="1" stop-color="#C8EAFF"/>
</linearGradient>
<linearGradient id="paint17_linear_534_1757" x1="139.244" y1="131.102" x2="155.468" y2="127.52" gradientUnits="userSpaceOnUse">
<stop stop-color="white"/>
<stop offset="0.398028" stop-color="#C8E4FF"/>
<stop offset="1" stop-color="#5391BE" stop-opacity="0"/>
</linearGradient>
<linearGradient id="paint18_linear_534_1757" x1="263.171" y1="218.705" x2="258.605" y2="195.319" gradientUnits="userSpaceOnUse">
<stop stop-color="white"/>
<stop offset="1" stop-color="white" stop-opacity="0"/>
</linearGradient>
<linearGradient id="paint19_linear_534_1757" x1="266.594" y1="220.663" x2="272.983" y2="214.145" gradientUnits="userSpaceOnUse">
<stop stop-color="#5B53BE" stop-opacity="0"/>
<stop offset="1" stop-color="#C8EAFF"/>
</linearGradient>
<linearGradient id="paint20_linear_534_1757" x1="225.175" y1="208.773" x2="241.962" y2="206.035" gradientUnits="userSpaceOnUse">
<stop stop-color="white"/>
<stop offset="0.398028" stop-color="#C8E4FF"/>
<stop offset="1" stop-color="#5391BE" stop-opacity="0"/>
</linearGradient>
<linearGradient id="paint21_linear_534_1757" x1="186.407" y1="202.839" x2="223.541" y2="251.857" gradientUnits="userSpaceOnUse">
<stop stop-color="white" stop-opacity="0.6"/>
<stop offset="1" stop-color="white"/>
</linearGradient>
<linearGradient id="paint22_linear_534_1757" x1="221.286" y1="220.663" x2="227.635" y2="214.228" gradientUnits="userSpaceOnUse">
<stop stop-color="#5B53BE" stop-opacity="0"/>
<stop offset="1" stop-color="#C8EAFF"/>
</linearGradient>
<linearGradient id="paint23_linear_534_1757" x1="180.317" y1="208.773" x2="196.866" y2="205.999" gradientUnits="userSpaceOnUse">
<stop stop-color="white"/>
<stop offset="0.398028" stop-color="#C8E4FF"/>
<stop offset="1" stop-color="#5391BE" stop-opacity="0"/>
</linearGradient>
<linearGradient id="paint24_linear_534_1757" x1="225.861" y1="204.125" x2="209.994" y2="161.242" gradientUnits="userSpaceOnUse">
<stop stop-color="white"/>
<stop offset="1" stop-color="white" stop-opacity="0.5"/>
</linearGradient>
<linearGradient id="paint25_linear_534_1757" x1="246.923" y1="182.644" x2="252.274" y2="176.3" gradientUnits="userSpaceOnUse">
<stop stop-color="#5B53BE" stop-opacity="0"/>
<stop offset="1" stop-color="#C8EAFF"/>
</linearGradient>
<linearGradient id="paint26_linear_534_1757" x1="207.548" y1="173.822" x2="224.528" y2="173.054" gradientUnits="userSpaceOnUse">
<stop stop-color="white"/>
<stop offset="0.398028" stop-color="#C8E4FF"/>
<stop offset="1" stop-color="#5391BE" stop-opacity="0"/>
</linearGradient>
<linearGradient id="paint27_linear_534_1757" x1="205.277" y1="196.407" x2="190.268" y2="151.379" gradientUnits="userSpaceOnUse">
<stop stop-color="white"/>
<stop offset="1" stop-color="white" stop-opacity="0"/>
</linearGradient>
<linearGradient id="paint28_linear_534_1757" x1="201.52" y1="182.644" x2="206.872" y2="176.3" gradientUnits="userSpaceOnUse">
<stop stop-color="#5B53BE" stop-opacity="0"/>
<stop offset="1" stop-color="#C8EAFF"/>
</linearGradient>
<linearGradient id="paint29_linear_534_1757" x1="162.146" y1="173.822" x2="179.125" y2="173.054" gradientUnits="userSpaceOnUse">
<stop stop-color="white"/>
<stop offset="0.398028" stop-color="#C8E4FF"/>
<stop offset="1" stop-color="#5391BE" stop-opacity="0"/>
</linearGradient>
</defs>
</svg>
