<svg width="104" height="122" viewBox="0 0 104 122" fill="none" xmlns="http://www.w3.org/2000/svg">
<path d="M46.875 89.0625H42.1875V86.7188C42.1875 82.3675 40.459 78.1945 37.3822 75.1178C34.3055 72.041 30.1325 70.3125 25.7812 70.3125C21.43 70.3125 17.257 72.041 14.1803 75.1178C11.1035 78.1945 9.375 82.3675 9.375 86.7188V89.0625H4.6875C3.4443 89.0625 2.25201 89.5564 1.37294 90.4354C0.493861 91.3145 0 92.5068 0 93.75V117.188C0 118.431 0.493861 119.623 1.37294 120.502C2.25201 121.381 3.4443 121.875 4.6875 121.875H46.875C48.1182 121.875 49.3105 121.381 50.1896 120.502C51.0686 119.623 51.5625 118.431 51.5625 117.188V93.75C51.5625 92.5068 51.0686 91.3145 50.1896 90.4354C49.3105 89.5564 48.1182 89.0625 46.875 89.0625ZM18.75 86.7188C18.75 84.8539 19.4908 83.0655 20.8094 81.7469C22.128 80.4283 23.9164 79.6875 25.7812 79.6875C27.6461 79.6875 29.4345 80.4283 30.7531 81.7469C32.0717 83.0655 32.8125 84.8539 32.8125 86.7188V89.0625H18.75V86.7188ZM42.1875 112.5H9.375V98.4375H42.1875V112.5ZM101.754 34.1836L68.9414 1.3711C68.5058 0.935934 67.9887 0.590869 67.4196 0.355612C66.8506 0.120355 66.2408 -0.000482746 65.625 1.44937e-06H9.375C6.8886 1.44937e-06 4.50403 0.987721 2.74587 2.74587C0.98772 4.50403 0 6.8886 0 9.375V60.9375C0 62.1807 0.493861 63.373 1.37294 64.2521C2.25201 65.1311 3.4443 65.625 4.6875 65.625C5.9307 65.625 7.12299 65.1311 8.00206 64.2521C8.88114 63.373 9.375 62.1807 9.375 60.9375V9.375H60.9375V37.5C60.9375 38.7432 61.4314 39.9355 62.3104 40.8146C63.1895 41.6936 64.3818 42.1875 65.625 42.1875H93.75V112.5H70.3125C69.0693 112.5 67.877 112.994 66.9979 113.873C66.1189 114.752 65.625 115.944 65.625 117.188C65.625 118.431 66.1189 119.623 66.9979 120.502C67.877 121.381 69.0693 121.875 70.3125 121.875H93.75C96.2364 121.875 98.621 120.887 100.379 119.129C102.137 117.371 103.125 114.986 103.125 112.5V37.5C103.125 36.8842 103.005 36.2744 102.769 35.7054C102.534 35.1364 102.189 34.6192 101.754 34.1836ZM70.3125 16.002L87.123 32.8125H70.3125V16.002Z" fill="#1E40AF"/>
</svg>
