<svg width="21" height="21" viewBox="0 0 21 21" fill="none" xmlns="http://www.w3.org/2000/svg">
<path d="M2.66253 8.56095C2.52321 8.42166 2.41269 8.25629 2.33729 8.07428C2.26188 7.89227 2.22307 7.69718 2.22307 7.50017C2.22307 7.30316 2.26188 7.10808 2.33729 6.92607C2.41269 6.74406 2.52321 6.57868 2.66253 6.43939L8.66253 0.43939C8.94387 0.158053 9.32545 -2.96436e-09 9.72332 0C10.1212 2.96436e-09 10.5028 0.158053 10.7841 0.43939C11.0654 0.720727 11.2235 1.1023 11.2235 1.50017C11.2235 1.89804 11.0654 2.27962 10.7841 2.56095L4.7841 8.56095C4.6448 8.70028 4.47943 8.8108 4.29742 8.8862C4.11541 8.9616 3.92033 9.00041 3.72331 9.00041C3.5263 9.00041 3.33122 8.9616 3.14921 8.8862C2.9672 8.8108 2.80182 8.70028 2.66253 8.56095ZM20.5341 10.1894C20.3948 10.0501 20.2294 9.93955 20.0474 9.86414C19.8654 9.78874 19.6703 9.74993 19.4733 9.74993C19.2763 9.74993 19.0812 9.78874 18.8992 9.86414C18.7172 9.93955 18.5518 10.0501 18.4125 10.1894L12.4125 16.1894C12.2732 16.3287 12.1627 16.4941 12.0873 16.6761C12.0119 16.8581 11.9731 17.0532 11.9731 17.2502C11.9731 17.4472 12.0119 17.6423 12.0873 17.8243C12.1627 18.0063 12.2732 18.1717 12.4125 18.311C12.5518 18.4503 12.7172 18.5608 12.8992 18.6362C13.0812 18.7116 13.2763 18.7504 13.4733 18.7504C13.6703 18.7504 13.8654 18.7116 14.0474 18.6362C14.2294 18.5608 14.3948 18.4503 14.5341 18.311L20.5341 12.311C20.6734 12.1717 20.7839 12.0063 20.8593 11.8243C20.9347 11.6423 20.9736 11.4472 20.9736 11.2502C20.9736 11.0532 20.9347 10.8581 20.8593 10.6761C20.7839 10.4941 20.6734 10.3287 20.5341 10.1894ZM17.2425 8.70814L12.2653 3.73095C12.2305 3.69609 12.1892 3.66843 12.1436 3.64956C12.0981 3.63068 12.0493 3.62097 12 3.62097C11.9508 3.62097 11.902 3.63068 11.8564 3.64956C11.8109 3.66843 11.7695 3.69609 11.7347 3.73095L5.9541 9.51158C5.91923 9.5464 5.89157 9.58776 5.8727 9.63329C5.85383 9.67881 5.84411 9.72761 5.84411 9.77689C5.84411 9.82617 5.85383 9.87497 5.8727 9.92049C5.89157 9.96602 5.91923 10.0074 5.9541 10.0422L7.3791 11.47L0.412533 18.4403C0.143103 18.7239 -0.00488478 19.1015 0.000123077 19.4927C0.00513094 19.8838 0.162738 20.2575 0.43934 20.5341C0.715942 20.8107 1.08965 20.9684 1.4808 20.9734C1.87194 20.9784 2.24956 20.8304 2.53316 20.561L9.50347 13.5944L10.9313 15.0222C10.9661 15.0571 11.0075 15.0847 11.053 15.1036C11.0985 15.1225 11.1473 15.1322 11.1966 15.1322C11.2459 15.1322 11.2947 15.1225 11.3402 15.1036C11.3857 15.0847 11.4271 15.0571 11.4619 15.0222L17.2425 9.24158C17.2778 9.2067 17.3058 9.16517 17.325 9.11938C17.3441 9.0736 17.3539 9.02448 17.3539 8.97486C17.3539 8.92524 17.3441 8.87612 17.325 8.83033C17.3058 8.78455 17.2778 8.74302 17.2425 8.70814Z" fill="#FAFAFA"/>
</svg>
